<svg width="19" height="17" viewBox="0 0 19 17" fill="none" xmlns="http://www.w3.org/2000/svg">
<path d="M12.7167 2L8.16667 4.63099L12.7167 7.26197V4.85208C15.7275 4.96612 18.1333 7.44666 18.1333 10.49C18.1333 13.606 15.6112 16.132 12.5 16.132C9.3888 16.132 6.86667 13.606 6.86667 10.49C6.86667 10.1948 6.8893 9.90493 6.93292 9.62199H6.05727C6.0195 9.90595 6 10.1957 6 10.49C6 14.0854 8.91015 17 12.5 17C16.0899 17 19 14.0854 19 10.49C19 6.96723 16.2062 4.098 12.7167 3.98353V2Z" fill="#F5F6F7"/>
<path d="M10 5C10 7.76142 7.76142 10 5 10C2.23858 10 0 7.76142 0 5C0 2.23858 2.23858 0 5 0C7.76142 0 10 2.23858 10 5Z" fill="#FF0000"/>
<path d="M7 6.4352V7H3.43182V6.4352H4.79545V3.30977C4.79545 3.19889 4.8 3.0857 4.80909 2.9702L3.75909 3.64588C3.71364 3.6736 3.66667 3.69208 3.61818 3.70132C3.57273 3.70825 3.52879 3.70825 3.48636 3.70132C3.44697 3.69439 3.41061 3.68399 3.37727 3.67013C3.34697 3.65396 3.32273 3.63664 3.30455 3.61816L3 3.29245L4.97273 2H5.76818V6.4352H7Z" fill="white"/>
</svg>
