<?xml version="1.0" encoding="UTF-8" standalone="no"?>
<!DOCTYPE svg PUBLIC "-//W3C//DTD SVG 1.1//EN" "http://www.w3.org/Graphics/SVG/1.1/DTD/svg11.dtd">
<svg version="1.1" xmlns="http://www.w3.org/2000/svg" xmlns:xlink="http://www.w3.org/1999/xlink" preserveAspectRatio="xMidYMid meet" viewBox="398.48065919878485 66.14420965841587 75.27927744107956 56.24630589295002" width="450.28" height="330.05"><defs><path d="M399.48 67.14L465.13 67.14L470.76 67.14L470.76 119.39L465.21 119.39L399.48 119.39L399.48 67.14Z" id="b4lgnmquO0"></path><path d="M409.39 73.55C411.12 71.6 412.56 70.59 413.54 70.59C413.86 70.59 414.19 70.7 414.51 70.92C414.73 71.14 414.95 71.46 414.95 71.78C414.95 72.33 414.3 73.08 413.1 74.31C408.09 79.11 405.56 85 405.56 92.11C405.56 99.98 408.19 106.3 413.32 111.21C414.4 112.18 414.84 112.94 414.84 113.59C414.84 113.91 414.62 114.24 414.4 114.56C414.19 114.78 413.75 115 413.43 115C412.24 115 410.58 113.59 408.41 110.85C404.19 105.65 402.29 99.92 402.2 92.11C402.12 84.3 404.58 79.01 409.39 73.55Z" id="b3ogmzoKbK"></path><path d="M420.16 113.64C419.08 113.64 418.27 112.83 418.27 111.74C418.27 110.66 419.08 109.84 420.16 109.84C423.19 109.84 447.4 109.84 450.43 109.84C451.51 109.84 452.32 110.66 452.32 111.74C452.05 112.83 451.51 113.64 450.43 113.64C450.43 113.64 450.43 113.64 450.43 113.64C432.27 113.64 422.18 113.64 420.16 113.64Z" id="b6QVqNSXNR"></path><path d="M431.37 79.22C431.37 84.67 423.93 90.67 423.93 96.33C423.93 102.43 428.63 106.37 433.1 107.56C433.75 107.67 433.97 107.02 433.21 106.8C431.37 106.37 429.39 103.95 429.39 100.27C429.39 96.77 432.78 95.47 434.08 93.84C435.49 92.11 435.16 89.91 434.3 89.26C433.43 88.61 434.08 87.74 435.49 88.82C436.9 89.8 438.12 91.78 437.65 93.52C437.11 95.79 437.87 97.13 439.06 97.34C440.25 97.56 441.59 96.91 441.44 95.83C441.3 94.75 440.69 93.55 441.01 93.55C441.88 93.55 443.65 95.61 443.65 99.01C443.65 102.4 440.9 104.67 440.04 105.54C439.49 106.08 440.14 106.73 440.9 106.41C441.23 106.3 441.99 105.86 442.42 105.54C444.58 104.02 447.98 100.85 447.98 95.07C447.98 88.97 445.7 86.23 443.29 83.95C440.9 81.68 440.32 82.22 441.01 83.41C442.96 86.8 441.77 87.99 440.36 87.99C438.63 87.99 438.63 84.17 437.83 81.24C436.43 74.71 430.4 73.59 429.31 73.48C428.52 73.12 427.51 73.77 428.84 74.31C428.84 74.31 428.84 74.31 428.84 74.31C430.53 75.47 431.37 77.1 431.37 79.22Z" id="ajAIgUxCl"></path><path d="M461.16 112.18C459.42 114.13 457.98 115.14 457 115.14C456.68 115.14 456.35 115.03 456.03 114.82C455.81 114.6 455.6 114.17 455.6 113.84C455.6 113.3 456.25 112.54 457.44 111.46C462.45 106.66 464.98 100.77 464.98 93.66C464.98 85.79 462.35 79.47 457.22 74.56C456.14 73.59 455.7 72.83 455.7 72.18C455.7 71.86 455.92 71.53 456.14 71.21C456.35 70.99 456.79 70.77 457.11 70.77C458.19 70.77 459.96 72.18 462.13 74.93C466.14 80.12 468.5 86.17 468.34 93.73C468.18 101.3 465.96 106.73 461.16 112.18Z" id="bEjWpunt"></path></defs><g><g></g><g><use xlink:href="#b3ogmzoKbK" opacity="1" fill="#0a0a2e" fill-opacity="1"></use><g><use xlink:href="#b3ogmzoKbK" opacity="1" fill-opacity="0" stroke="#000000" stroke-width="1" stroke-opacity="0"></use></g></g><g><use xlink:href="#b6QVqNSXNR" opacity="1" fill="#0a0a2e" fill-opacity="1"></use><g><use xlink:href="#b6QVqNSXNR" opacity="1" fill-opacity="0" stroke="#000000" stroke-width="1" stroke-opacity="0"></use></g></g><g><use xlink:href="#ajAIgUxCl" opacity="1" fill="#0a0a2e" fill-opacity="1"></use><g><use xlink:href="#ajAIgUxCl" opacity="1" fill-opacity="0" stroke="#000000" stroke-width="1" stroke-opacity="0"></use></g></g><g><use xlink:href="#bEjWpunt" opacity="1" fill="#0a0a2e" fill-opacity="1"></use><g><use xlink:href="#bEjWpunt" opacity="1" fill-opacity="0" stroke="#000000" stroke-width="1" stroke-opacity="0"></use></g></g></g></svg>