<?xml version="1.0" encoding="UTF-8" standalone="no"?>
<!DOCTYPE svg PUBLIC "-//W3C//DTD SVG 1.1//EN" "http://www.w3.org/Graphics/SVG/1.1/DTD/svg11.dtd">
<svg version="1.1" xmlns="http://www.w3.org/2000/svg" xmlns:xlink="http://www.w3.org/1999/xlink" preserveAspectRatio="xMidYMid meet" viewBox="67.77249787773006 69.5934850151163 403.5744587987238 50.10108301699999" width="1000.57" height="115.44"><defs><path d="M136.27 81.54L137.1 81.64L137.89 81.79L138.64 81.97L139.35 82.19L140.02 82.46L140.64 82.76L141.23 83.11L141.77 83.5L142.28 83.92L142.74 84.39L143.16 84.89L143.54 85.44L143.88 86.03L144.18 86.65L144.44 87.32L144.66 88.02L144.84 88.77L144.98 89.55L145.08 90.38L145.14 91.24L145.16 92.15L145.16 92.37L145.15 92.58L145.13 92.78L145.1 92.97L145.07 93.16L145.03 93.33L144.98 93.5L144.93 93.65L144.86 93.79L144.79 93.93L144.72 94.05L144.63 94.17L144.54 94.28L144.44 94.37L144.33 94.46L144.22 94.53L144.1 94.6L143.97 94.65L143.83 94.7L143.69 94.74L143.54 94.76L143.38 94.78L143.21 94.78L126.43 94.78L126.43 94.64L126.39 94.64L126.39 98.14L126.4 98.61L126.45 99.07L126.52 99.5L126.63 99.91L126.76 100.3L126.93 100.67L127.12 101.01L127.35 101.34L127.6 101.64L127.89 101.93L128.21 102.19L128.55 102.43L128.93 102.65L129.34 102.85L129.77 103.03L130.24 103.19L130.74 103.32L131.27 103.44L131.83 103.53L132.42 103.6L133.04 103.66L133.69 103.69L134.37 103.7L134.62 103.7L134.87 103.69L135.11 103.69L135.35 103.68L135.58 103.67L135.81 103.65L136.04 103.64L136.26 103.62L136.48 103.6L136.69 103.58L136.9 103.55L137.1 103.52L137.3 103.49L137.49 103.46L137.69 103.42L137.87 103.38L138.05 103.34L138.23 103.3L138.41 103.25L138.58 103.21L138.74 103.16L138.9 103.1L139.06 103.05L139.15 103.02L139.24 102.98L139.34 102.95L139.44 102.9L139.55 102.86L139.66 102.81L139.78 102.75L139.9 102.7L140.03 102.63L140.16 102.56L140.29 102.49L140.44 102.41L140.58 102.33L140.74 102.24L140.9 102.15L141.06 102.05L141.23 101.95L141.4 101.84L141.58 101.72L141.76 101.6L141.95 101.48L142.15 101.35L142.35 101.21L142.47 101.1L142.59 100.99L142.71 100.89L142.83 100.79L142.94 100.7L143.04 100.62L143.15 100.54L143.25 100.46L143.34 100.39L143.43 100.32L143.52 100.26L143.61 100.2L143.69 100.15L143.77 100.11L143.84 100.06L143.91 100.03L143.98 100L144.04 99.97L144.1 99.95L144.15 99.93L144.2 99.92L144.25 99.91L144.3 99.91L144.41 99.91L144.51 99.92L144.61 99.93L144.71 99.95L144.8 99.97L144.89 100L144.97 100.03L145.04 100.07L145.11 100.11L145.18 100.16L145.24 100.22L145.3 100.28L145.35 100.34L145.4 100.41L145.44 100.49L145.48 100.57L145.51 100.66L145.53 100.76L145.56 100.86L145.57 100.96L145.59 101.07L145.59 101.19L145.6 101.32L145.59 101.44L145.58 101.57L145.56 101.7L145.54 101.82L145.5 101.95L145.46 102.08L145.42 102.21L145.36 102.33L145.3 102.46L145.23 102.59L145.15 102.72L145.06 102.85L144.97 102.97L144.87 103.1L144.77 103.23L144.65 103.36L144.53 103.49L144.4 103.62L144.27 103.75L144.12 103.88L143.97 104.01L143.81 104.14L143.65 104.28L143.37 104.48L143.08 104.68L142.78 104.87L142.47 105.06L142.15 105.23L141.81 105.4L141.46 105.55L141.1 105.7L140.73 105.84L140.34 105.97L139.94 106.09L139.53 106.2L139.11 106.31L138.68 106.4L138.23 106.48L137.78 106.56L137.31 106.62L136.83 106.68L136.34 106.72L135.83 106.76L135.32 106.78L134.8 106.8L134.26 106.8L133.33 106.79L132.44 106.74L131.59 106.66L130.78 106.54L130.01 106.4L129.28 106.22L128.6 106.01L127.95 105.76L127.35 105.49L126.79 105.18L126.27 104.84L125.78 104.46L125.35 104.06L124.95 103.62L124.59 103.14L124.28 102.64L124.01 102.1L123.77 101.53L123.59 100.92L123.44 100.29L123.33 99.62L123.27 98.91L123.25 98.17L123.25 89.44L123.25 89.19L123.27 88.93L123.29 88.69L123.32 88.44L123.36 88.19L123.4 87.95L123.46 87.71L123.52 87.48L123.6 87.24L123.68 87.01L123.77 86.78L123.87 86.56L123.98 86.34L124.09 86.12L124.22 85.9L124.35 85.69L124.49 85.48L124.64 85.28L124.8 85.08L124.97 84.88L125.15 84.69L125.33 84.5L125.52 84.31L125.78 84.06L126.06 83.83L126.34 83.6L126.64 83.39L126.95 83.19L127.27 83L127.61 82.82L127.95 82.65L128.31 82.5L128.68 82.35L129.06 82.22L129.45 82.1L129.86 81.98L130.27 81.88L130.7 81.79L131.13 81.71L131.58 81.65L132.04 81.59L132.5 81.54L132.98 81.51L133.47 81.48L133.97 81.47L134.48 81.46L135.39 81.48L136.27 81.54ZM132.38 84.6L131.61 84.73L130.86 84.92L130.13 85.16L129.44 85.45L128.77 85.79L128.16 86.27L127.64 86.77L127.2 87.31L126.85 87.87L126.6 88.46L126.44 89.08L126.39 89.73L126.39 91.57L141.99 91.57L141.82 89.7L141.34 88.11L140.53 86.81L139.39 85.8L137.93 85.07L136.13 84.64L134.01 84.49L133.18 84.52L132.38 84.6Z" id="c2rfzKhFXe"></path><path d="M102.49 85C99.68 85 98.11 85 97.8 85C96.5 85 95.85 84.46 95.85 83.48C95.85 82.4 96.5 81.97 97.8 81.97C98.43 81.97 103.48 81.97 104.12 81.97C105.2 81.97 105.74 82.94 105.74 84.71C107.69 82.65 109.78 81.42 111.95 81.42C113.79 81.42 115.23 81.97 116.21 83.05C117.29 84.13 117.73 85.68 117.73 87.42C117.73 88.61 117.18 89.26 116.21 89.26C115.56 89.26 115.13 88.82 114.91 88.07C114.48 86.55 114.26 85.79 114.15 85.68C113.72 84.93 112.85 84.49 111.77 84.49C110.58 84.49 109.39 84.93 108.38 85.79C107.73 86.23 106.86 87.2 105.74 88.64C105.74 89.62 105.74 94.49 105.74 103.26C109.27 103.26 111.23 103.26 111.62 103.26C112.92 103.26 113.57 103.81 113.57 104.78C113.57 105.86 112.92 106.41 111.62 106.41C110.23 106.41 99.05 106.41 97.65 106.41C96.35 106.41 95.7 105.86 95.7 104.89C95.7 103.81 96.35 103.37 97.65 103.37C97.97 103.37 99.57 103.37 102.45 103.37L102.45 103.23L102.49 103.23L102.49 85Z" id="a1lnzgAUMf"></path><path d="M70.61 85.03C69.42 85.03 68.77 84.49 68.77 83.52C68.77 82.43 69.42 82 70.61 82C70.85 82 72.01 82 74.12 82C74.12 80.16 74.12 79.14 74.12 78.93C74.12 73.59 76.86 70.95 82.2 70.95C84.37 70.95 86.25 71.39 87.65 72.15C89.49 73.23 90.51 75 90.51 77.06C90.51 78.46 89.96 79.01 88.99 79.01C88.34 79.01 87.69 78.57 87.36 77.81C86.93 76.41 86.5 75.65 86.28 75.29C85.63 74.53 84.33 74.1 82.45 74.1C79.17 74.1 77.55 75.72 77.55 79.01C77.55 79.2 77.55 80.19 77.55 81.97C81.34 81.97 83.44 81.97 83.86 81.97C85.27 81.97 85.92 82.51 85.92 83.48C85.92 84.56 85.27 85 83.86 85C83.44 85 81.34 85 77.55 85C77.55 96.98 77.55 103.63 77.55 104.96C77.55 106.15 77 106.8 76.03 106.8C74.95 106.8 74.51 106.15 74.51 104.96C74.51 103.63 74.51 96.98 74.51 85L74.12 85L74.12 85.03C72.01 85.03 70.85 85.03 70.61 85.03Z" id="a2uxcyStD"></path><path d="M163.67 81.54L164.5 81.64L165.29 81.79L166.04 81.97L166.75 82.19L167.42 82.46L168.04 82.76L168.63 83.11L169.17 83.5L169.68 83.92L170.14 84.39L170.56 84.89L170.94 85.44L171.28 86.03L171.58 86.65L171.84 87.32L172.06 88.02L172.24 88.77L172.38 89.55L172.48 90.38L172.54 91.24L172.56 92.15L172.56 92.37L172.55 92.58L172.53 92.78L172.5 92.97L172.47 93.16L172.43 93.33L172.38 93.5L172.33 93.65L172.26 93.79L172.19 93.93L172.12 94.05L172.03 94.17L171.94 94.28L171.84 94.37L171.73 94.46L171.62 94.53L171.5 94.6L171.37 94.65L171.23 94.7L171.09 94.74L170.94 94.76L170.78 94.78L170.61 94.78L153.83 94.78L153.83 94.64L153.79 94.64L153.79 98.14L153.81 98.61L153.85 99.07L153.93 99.5L154.03 99.91L154.16 100.3L154.33 100.67L154.52 101.01L154.75 101.34L155.01 101.64L155.29 101.93L155.61 102.19L155.95 102.43L156.33 102.65L156.74 102.85L157.17 103.03L157.64 103.19L158.14 103.32L158.67 103.44L159.23 103.53L159.82 103.6L160.44 103.66L161.09 103.69L161.77 103.7L162.02 103.7L162.27 103.69L162.51 103.69L162.75 103.68L162.98 103.67L163.21 103.65L163.44 103.64L163.66 103.62L163.88 103.6L164.09 103.58L164.3 103.55L164.5 103.52L164.7 103.49L164.9 103.46L165.09 103.42L165.27 103.38L165.46 103.34L165.63 103.3L165.81 103.25L165.98 103.21L166.14 103.16L166.3 103.1L166.46 103.05L166.55 103.02L166.64 102.98L166.74 102.95L166.84 102.9L166.95 102.86L167.06 102.81L167.18 102.75L167.3 102.7L167.43 102.63L167.56 102.56L167.7 102.49L167.84 102.41L167.99 102.33L168.14 102.24L168.3 102.15L168.46 102.05L168.63 101.95L168.8 101.84L168.98 101.72L169.16 101.6L169.35 101.48L169.55 101.35L169.75 101.21L169.87 101.1L169.99 100.99L170.11 100.89L170.23 100.79L170.34 100.7L170.44 100.62L170.55 100.54L170.65 100.46L170.74 100.39L170.83 100.32L170.92 100.26L171.01 100.2L171.09 100.15L171.17 100.11L171.24 100.06L171.31 100.03L171.38 100L171.44 99.97L171.5 99.95L171.55 99.93L171.6 99.92L171.65 99.91L171.7 99.91L171.81 99.91L171.91 99.92L172.01 99.93L172.11 99.95L172.2 99.97L172.29 100L172.37 100.03L172.44 100.07L172.51 100.11L172.58 100.16L172.64 100.22L172.7 100.28L172.75 100.34L172.8 100.41L172.84 100.49L172.88 100.57L172.91 100.66L172.93 100.76L172.96 100.86L172.97 100.96L172.99 101.07L172.99 101.19L173 101.32L172.99 101.44L172.98 101.57L172.96 101.7L172.94 101.82L172.9 101.95L172.86 102.08L172.82 102.21L172.76 102.33L172.7 102.46L172.63 102.59L172.55 102.72L172.47 102.85L172.37 102.97L172.27 103.1L172.17 103.23L172.05 103.36L171.93 103.49L171.8 103.62L171.67 103.75L171.52 103.88L171.37 104.01L171.21 104.14L171.05 104.28L170.77 104.48L170.48 104.68L170.18 104.87L169.87 105.06L169.55 105.23L169.21 105.4L168.86 105.55L168.5 105.7L168.13 105.84L167.74 105.97L167.34 106.09L166.93 106.2L166.51 106.31L166.08 106.4L165.63 106.48L165.18 106.56L164.71 106.62L164.23 106.68L163.74 106.72L163.24 106.76L162.72 106.78L162.2 106.8L161.66 106.8L160.73 106.79L159.84 106.74L158.99 106.66L158.18 106.54L157.41 106.4L156.69 106.22L156 106.01L155.35 105.76L154.75 105.49L154.19 105.18L153.67 104.84L153.19 104.46L152.75 104.06L152.35 103.62L151.99 103.14L151.68 102.64L151.41 102.1L151.18 101.53L150.99 100.92L150.84 100.29L150.73 99.62L150.67 98.91L150.65 98.17L150.65 89.44L150.65 89.19L150.67 88.93L150.69 88.69L150.72 88.44L150.76 88.19L150.8 87.95L150.86 87.71L150.92 87.48L151 87.24L151.08 87.01L151.17 86.78L151.27 86.56L151.38 86.34L151.49 86.12L151.62 85.9L151.75 85.69L151.89 85.48L152.04 85.28L152.2 85.08L152.37 84.88L152.55 84.69L152.73 84.5L152.92 84.31L153.18 84.06L153.46 83.83L153.74 83.6L154.04 83.39L154.35 83.19L154.67 83L155.01 82.82L155.35 82.65L155.71 82.5L156.08 82.35L156.46 82.22L156.85 82.1L157.26 81.98L157.67 81.88L158.1 81.79L158.53 81.71L158.98 81.65L159.44 81.59L159.9 81.54L160.38 81.51L160.87 81.48L161.37 81.47L161.88 81.46L162.79 81.48L163.67 81.54ZM159.78 84.6L159.01 84.73L158.26 84.92L157.53 85.16L156.84 85.45L156.17 85.79L155.53 86.27L154.99 86.77L154.55 87.31L154.22 87.87L153.98 88.46L153.84 89.08L153.79 89.73L153.79 91.57L169.39 91.57L169.22 89.7L168.74 88.11L167.93 86.81L166.79 85.8L165.33 85.07L163.53 84.64L161.41 84.49L160.58 84.52L159.78 84.6Z" id="gH2eXpiLa"></path><path d="M178.34 83.05C178.34 75.86 182.02 72.36 189.68 72.36C192.74 72.36 195.13 73.01 197.11 74.31C199.28 75.94 200.4 78.25 200.4 81.06C200.4 82.36 199.86 83.01 198.77 83.01C198.01 83.01 197.47 82.36 197.15 81.06C196.93 79.98 196.5 79.01 195.96 77.99C194.98 76.26 192.89 75.47 189.64 75.47C186.79 75.47 184.84 76.12 183.65 77.52C182.56 78.82 181.91 80.81 181.91 83.73C181.91 84.87 181.91 93.94 181.91 95.07C181.91 98.03 182.56 100.09 183.75 101.39C185.05 102.8 187.04 103.55 189.86 103.55C194.12 103.55 196.61 102.04 197.15 99.08C197.36 97.99 197.47 97.45 197.47 97.34C197.69 96.69 198.12 96.37 198.77 96.37C199.86 96.37 200.4 97.02 200.4 98.32C200.4 101.06 199.31 103.12 197 104.75C195.16 105.94 192.85 106.59 189.82 106.59C186.32 106.59 183.61 105.83 181.62 104.2C179.31 102.69 178.34 100.09 178.34 96.69C178.34 96.69 178.34 96.69 178.34 96.69L178.34 96.69C178.34 88.51 178.34 83.96 178.34 83.05Z" id="fQTPOp1HR"></path><path d="M218.96 81.52L220.11 81.68L221.19 81.9L222.17 82.19L223.08 82.54L223.9 82.96L224.63 83.44L225.28 83.99L225.84 84.59L226.32 85.27L226.71 86L227.01 86.8L227.23 87.67L227.36 88.59L227.4 89.58L227.4 98.54L227.36 99.53L227.23 100.45L227.02 101.32L226.72 102.12L226.34 102.85L225.88 103.52L225.33 104.13L224.7 104.68L223.98 105.16L223.18 105.58L222.29 105.93L221.32 106.22L220.27 106.44L219.13 106.6L217.91 106.7L216.61 106.73L215.23 106.72L213.94 106.64L212.74 106.49L211.64 106.28L210.63 106L209.71 105.65L208.88 105.24L208.14 104.76L207.49 104.21L206.92 103.6L206.45 102.92L206.06 102.18L205.76 101.37L205.55 100.49L205.42 99.55L205.38 98.54L205.38 89.58L205.42 88.59L205.55 87.67L205.77 86.8L206.07 86L206.46 85.27L206.94 84.59L207.5 83.99L208.15 83.44L208.88 82.96L209.7 82.54L210.6 82.19L211.59 81.9L212.67 81.68L213.82 81.52L215.06 81.42L216.39 81.39L217.72 81.42L218.96 81.52ZM213.86 84.6L212.86 84.78L211.96 85.03L211.16 85.35L210.46 85.75L209.87 86.21L209.39 86.75L209.01 87.35L208.74 88.02L208.57 88.77L208.52 89.58L208.52 98.54L208.57 99.35L208.74 100.09L209.01 100.77L209.4 101.37L209.89 101.9L210.49 102.36L211.2 102.74L212.02 103.06L212.95 103.29L213.99 103.46L215.14 103.54L216.39 103.55L217.62 103.54L218.74 103.46L219.77 103.31L220.68 103.08L221.49 102.78L222.19 102.4L222.79 101.95L223.28 101.42L223.66 100.81L223.93 100.13L224.1 99.37L224.15 98.54L224.15 89.58L224.1 88.77L223.93 88.02L223.66 87.35L223.27 86.75L222.77 86.21L222.17 85.75L221.45 85.35L220.62 85.03L219.67 84.78L218.62 84.6L217.45 84.49L216.17 84.46L214.97 84.49L213.86 84.6Z" id="a251t9G9jq"></path><path d="M252.77 70.86L252.9 70.89L253.03 70.92L253.15 70.96L253.26 71.02L253.36 71.08L253.46 71.15L253.55 71.23L253.63 71.32L253.71 71.41L253.78 71.52L253.84 71.64L253.9 71.77L253.95 71.9L253.99 72.05L254.03 72.2L254.06 72.37L254.09 72.54L254.1 72.73L254.11 72.92L254.12 73.12L254.12 105.21L254.11 105.36L254.1 105.5L254.09 105.63L254.06 105.75L254.03 105.87L254 105.98L253.95 106.08L253.91 106.18L253.85 106.27L253.79 106.36L253.72 106.43L253.65 106.5L253.57 106.57L253.49 106.62L253.39 106.67L253.3 106.72L253.2 106.76L253.09 106.79L252.97 106.81L252.85 106.83L252.73 106.84L252.6 106.84L252.51 106.84L252.43 106.83L252.35 106.82L252.27 106.81L252.19 106.79L252.12 106.76L252.05 106.74L251.98 106.7L251.92 106.67L251.86 106.63L251.8 106.58L251.75 106.53L251.7 106.48L251.65 106.42L251.61 106.35L251.57 106.28L251.53 106.21L251.5 106.13L251.47 106.04L251.45 105.95L251.42 105.86L251.41 105.76L251.41 105.68L251.41 105.61L251.4 105.53L251.4 105.46L251.39 105.38L251.39 105.31L251.38 105.23L251.38 105.15L251.37 105.07L251.36 104.98L251.35 104.9L251.35 104.81L251.34 104.72L251.33 104.63L251.33 104.53L251.32 104.44L251.31 104.33L251.31 104.23L251.31 104.12L251.3 104.01L251.3 103.89L251.3 103.77L251.04 103.93L250.8 104.09L250.55 104.25L250.32 104.39L250.09 104.53L249.88 104.67L249.66 104.8L249.46 104.92L249.26 105.04L249.07 105.15L248.89 105.26L248.71 105.36L248.55 105.45L248.39 105.54L248.23 105.63L248.09 105.7L247.95 105.78L247.82 105.84L247.69 105.9L247.58 105.95L247.47 106L247.36 106.04L247.2 106.1L247.03 106.16L246.86 106.21L246.68 106.26L246.5 106.31L246.31 106.35L246.12 106.39L245.93 106.43L245.73 106.47L245.53 106.5L245.33 106.53L245.12 106.56L244.91 106.59L244.7 106.61L244.48 106.63L244.26 106.65L244.04 106.66L243.81 106.67L243.59 106.68L243.36 106.69L243.12 106.69L242.89 106.69L242.49 106.69L242.09 106.68L241.71 106.66L241.33 106.63L240.96 106.6L240.59 106.55L240.24 106.5L239.89 106.44L239.54 106.38L239.21 106.3L238.88 106.22L238.55 106.13L238.24 106.04L237.93 105.93L237.63 105.82L237.33 105.71L237.04 105.58L236.76 105.45L236.49 105.31L236.22 105.16L235.96 105.01L235.7 104.85L235.43 104.66L235.17 104.45L234.91 104.24L234.68 104.02L234.45 103.79L234.23 103.55L234.03 103.3L233.84 103.04L233.66 102.78L233.5 102.5L233.34 102.22L233.2 101.93L233.08 101.63L232.96 101.32L232.86 101.01L232.77 100.68L232.7 100.34L232.64 100L232.59 99.65L232.55 99.29L232.53 98.92L232.53 98.54L232.53 89.37L232.53 89L232.55 88.63L232.59 88.28L232.63 87.94L232.69 87.6L232.77 87.27L232.85 86.95L232.95 86.64L233.06 86.34L233.18 86.05L233.32 85.76L233.46 85.48L233.62 85.21L233.8 84.95L233.98 84.7L234.18 84.45L234.38 84.22L234.6 83.99L234.83 83.77L235.08 83.56L235.33 83.35L235.6 83.16L235.84 83L236.08 82.85L236.34 82.7L236.61 82.56L236.88 82.43L237.16 82.3L237.45 82.19L237.74 82.08L238.04 81.97L238.35 81.88L238.66 81.79L238.98 81.71L239.3 81.63L239.63 81.57L239.97 81.51L240.31 81.46L240.66 81.41L241.01 81.38L241.36 81.35L241.72 81.33L242.09 81.32L242.45 81.32L242.7 81.32L242.95 81.32L243.19 81.33L243.43 81.34L243.66 81.35L243.9 81.36L244.12 81.38L244.35 81.4L244.56 81.42L244.78 81.45L244.99 81.48L245.2 81.51L245.4 81.54L245.6 81.58L245.8 81.62L245.99 81.66L246.17 81.7L246.35 81.75L246.53 81.8L246.71 81.85L246.87 81.91L247.04 81.97L247.2 82.03L247.37 82.09L247.53 82.16L247.7 82.23L247.87 82.31L248.05 82.39L248.22 82.48L248.39 82.57L248.57 82.67L248.75 82.77L248.93 82.87L249.11 82.98L249.29 83.1L249.47 83.22L249.65 83.34L249.84 83.47L250.03 83.6L250.21 83.74L250.4 83.88L250.59 84.03L250.78 84.19L250.97 84.35L250.97 73.12L250.98 72.92L250.99 72.73L251 72.54L251.03 72.37L251.06 72.2L251.09 72.05L251.14 71.9L251.18 71.77L251.24 71.64L251.3 71.52L251.37 71.41L251.44 71.32L251.52 71.23L251.6 71.15L251.7 71.08L251.79 71.02L251.89 70.96L252 70.92L252.12 70.89L252.24 70.86L252.36 70.85L252.49 70.85L252.64 70.85L252.77 70.86ZM242.17 84.63L241.67 84.68L241.18 84.73L240.7 84.81L240.25 84.91L239.81 85.02L239.4 85.16L239.01 85.31L238.64 85.49L238.3 85.68L237.91 85.96L237.54 86.26L237.21 86.58L236.92 86.92L236.66 87.27L236.44 87.65L236.25 88.05L236.11 88.47L236.01 88.91L235.94 89.36L235.92 89.84L235.92 98.46L235.94 98.96L236 99.43L236.09 99.88L236.23 100.31L236.4 100.71L236.61 101.09L236.87 101.45L237.17 101.78L237.5 102.09L237.88 102.36L238.3 102.62L238.67 102.79L239.05 102.95L239.45 103.09L239.87 103.23L240.3 103.35L240.76 103.45L241.23 103.54L241.73 103.61L242.24 103.66L242.77 103.69L243.32 103.7L243.76 103.69L244.2 103.68L244.63 103.65L245.05 103.61L245.46 103.55L245.87 103.49L246.26 103.41L246.64 103.31L247.01 103.2L247.36 103.08L247.69 102.94L247.97 102.75L248.26 102.55L248.56 102.34L248.86 102.11L249.17 101.88L249.49 101.63L249.82 101.37L250.15 101.1L250.49 100.81L250.84 100.51L251.19 100.2L251.19 87.63L250.78 87.34L250.38 87.07L250 86.8L249.62 86.55L249.26 86.32L248.92 86.11L248.59 85.91L248.28 85.74L247.99 85.59L247.72 85.46L247.47 85.36L247.11 85.22L246.75 85.1L246.38 84.99L246 84.89L245.62 84.81L245.23 84.75L244.83 84.69L244.44 84.65L244.03 84.62L243.62 84.61L243.21 84.6L242.69 84.61L242.17 84.63Z" id="b2DCHwL0mN"></path><path d="M273.09 81.54L273.92 81.64L274.71 81.79L275.46 81.97L276.17 82.19L276.84 82.46L277.47 82.76L278.05 83.11L278.6 83.5L279.1 83.92L279.56 84.39L279.98 84.89L280.37 85.44L280.71 86.03L281.01 86.65L281.27 87.32L281.49 88.02L281.67 88.77L281.81 89.55L281.91 90.38L281.97 91.24L281.99 92.15L281.98 92.37L281.97 92.58L281.95 92.78L281.93 92.97L281.89 93.16L281.85 93.33L281.8 93.5L281.75 93.65L281.69 93.79L281.62 93.93L281.54 94.05L281.45 94.17L281.36 94.28L281.26 94.37L281.16 94.46L281.04 94.53L280.92 94.6L280.79 94.65L280.66 94.7L280.51 94.74L280.36 94.76L280.2 94.78L280.04 94.78L263.25 94.78L263.25 94.64L263.21 94.64L263.21 98.14L263.23 98.61L263.27 99.07L263.35 99.5L263.45 99.91L263.59 100.3L263.75 100.67L263.95 101.01L264.17 101.34L264.43 101.64L264.71 101.93L265.03 102.19L265.38 102.43L265.75 102.65L266.16 102.85L266.6 103.03L267.06 103.19L267.56 103.32L268.09 103.44L268.65 103.53L269.24 103.6L269.86 103.66L270.51 103.69L271.19 103.7L271.44 103.7L271.69 103.69L271.93 103.69L272.17 103.68L272.41 103.67L272.64 103.65L272.86 103.64L273.08 103.62L273.3 103.6L273.51 103.58L273.72 103.55L273.92 103.52L274.12 103.49L274.32 103.46L274.51 103.42L274.7 103.38L274.88 103.34L275.06 103.3L275.23 103.25L275.4 103.21L275.57 103.16L275.73 103.1L275.88 103.05L275.97 103.02L276.06 102.98L276.16 102.95L276.26 102.9L276.37 102.86L276.48 102.81L276.6 102.75L276.72 102.7L276.85 102.63L276.98 102.56L277.12 102.49L277.26 102.41L277.41 102.33L277.56 102.24L277.72 102.15L277.88 102.05L278.05 101.95L278.22 101.84L278.4 101.72L278.59 101.6L278.78 101.48L278.97 101.35L279.17 101.21L279.29 101.1L279.42 100.99L279.53 100.89L279.65 100.79L279.76 100.7L279.87 100.62L279.97 100.54L280.07 100.46L280.16 100.39L280.26 100.32L280.35 100.26L280.43 100.2L280.51 100.15L280.59 100.11L280.66 100.06L280.73 100.03L280.8 100L280.86 99.97L280.92 99.95L280.98 99.93L281.03 99.92L281.07 99.91L281.12 99.91L281.23 99.91L281.34 99.92L281.44 99.93L281.53 99.95L281.62 99.97L281.71 100L281.79 100.03L281.87 100.07L281.94 100.11L282 100.16L282.06 100.22L282.12 100.28L282.17 100.34L282.22 100.41L282.26 100.49L282.3 100.57L282.33 100.66L282.36 100.76L282.38 100.86L282.4 100.96L282.41 101.07L282.42 101.19L282.42 101.32L282.42 101.44L282.4 101.57L282.39 101.7L282.36 101.82L282.33 101.95L282.29 102.08L282.24 102.21L282.18 102.33L282.12 102.46L282.05 102.59L281.97 102.72L281.89 102.85L281.8 102.97L281.7 103.1L281.59 103.23L281.48 103.36L281.35 103.49L281.22 103.62L281.09 103.75L280.94 103.88L280.79 104.01L280.64 104.14L280.47 104.28L280.19 104.48L279.91 104.68L279.61 104.87L279.29 105.06L278.97 105.23L278.63 105.4L278.28 105.55L277.92 105.7L277.55 105.84L277.16 105.97L276.76 106.09L276.35 106.2L275.93 106.31L275.5 106.4L275.06 106.48L274.6 106.56L274.13 106.62L273.65 106.68L273.16 106.72L272.66 106.76L272.14 106.78L271.62 106.8L271.08 106.8L270.15 106.79L269.26 106.74L268.41 106.66L267.6 106.54L266.84 106.4L266.11 106.22L265.42 106.01L264.78 105.76L264.17 105.49L263.61 105.18L263.09 104.84L262.61 104.46L262.17 104.06L261.77 103.62L261.42 103.14L261.1 102.64L260.83 102.1L260.6 101.53L260.41 100.92L260.26 100.29L260.16 99.62L260.09 98.91L260.07 98.17L260.07 89.44L260.08 89.19L260.09 88.93L260.11 88.69L260.14 88.44L260.18 88.19L260.23 87.95L260.28 87.71L260.35 87.48L260.42 87.24L260.5 87.01L260.59 86.78L260.69 86.56L260.8 86.34L260.91 86.12L261.04 85.9L261.17 85.69L261.31 85.48L261.47 85.28L261.62 85.08L261.79 84.88L261.97 84.69L262.15 84.5L262.35 84.31L262.61 84.06L262.88 83.83L263.17 83.6L263.46 83.39L263.77 83.19L264.1 83L264.43 82.82L264.78 82.65L265.13 82.5L265.5 82.35L265.88 82.22L266.28 82.1L266.68 81.98L267.09 81.88L267.52 81.79L267.95 81.71L268.4 81.65L268.86 81.59L269.33 81.54L269.8 81.51L270.29 81.48L270.79 81.47L271.3 81.46L272.22 81.48L273.09 81.54ZM269.21 84.6L268.43 84.73L267.68 84.92L266.96 85.16L266.26 85.45L265.6 85.79L264.95 86.27L264.41 86.77L263.98 87.31L263.64 87.87L263.4 88.46L263.26 89.08L263.21 89.73L263.21 91.57L278.81 91.57L278.65 89.7L278.16 88.11L277.35 86.81L276.21 85.8L274.75 85.07L272.95 84.64L270.83 84.49L270.01 84.52L269.21 84.6Z" id="b4kVpGgIUB"></path><path d="M287.76 83.05C287.76 75.86 291.48 72.36 299.1 72.36C302.17 72.36 304.55 73.01 306.53 74.31C308.7 75.94 309.82 78.25 309.82 81.06C309.82 82.36 309.28 83.01 308.19 83.01C307.44 83.01 306.9 82.36 306.57 81.06C306.35 79.98 305.92 79.01 305.38 77.99C304.4 76.26 302.31 75.47 299.06 75.47C296.21 75.47 294.26 76.12 293.07 77.52C291.99 78.82 291.34 80.81 291.34 83.73C291.34 84.87 291.34 93.94 291.34 95.07C291.34 98.03 291.99 100.09 293.18 101.39C294.48 102.8 296.46 103.55 299.28 103.55C303.54 103.55 306.03 102.04 306.57 99.08C306.79 97.99 306.9 97.45 306.9 97.34C307.11 96.69 307.55 96.37 308.19 96.37C309.28 96.37 309.82 97.02 309.82 98.32C309.82 101.06 308.74 103.12 306.43 104.75C304.58 105.94 302.27 106.59 299.24 106.59C295.74 106.59 293.03 105.83 291.05 104.2C288.84 102.69 287.76 100.09 287.76 96.69C287.76 96.69 287.76 96.69 287.76 96.69L287.76 96.69C287.76 88.51 287.76 83.96 287.76 83.05Z" id="a1fxnYhBIe"></path><path d="M326.18 81.18L326.55 81.19L326.92 81.21L327.27 81.24L327.61 81.26L327.94 81.3L328.27 81.33L328.59 81.38L328.9 81.42L329.2 81.48L329.49 81.53L329.77 81.6L330.05 81.66L330.31 81.73L330.58 81.81L330.83 81.89L331.07 81.97L331.31 82.06L331.54 82.16L331.77 82.25L331.99 82.36L332.2 82.46L332.4 82.57L332.6 82.69L332.82 82.85L333.03 83.02L333.23 83.19L333.42 83.38L333.6 83.57L333.78 83.78L333.95 83.99L334.11 84.21L334.26 84.44L334.4 84.68L334.53 84.92L334.66 85.17L334.77 85.44L334.88 85.71L334.98 85.99L335.07 86.27L335.15 86.57L335.22 86.87L335.28 87.18L335.33 87.5L335.37 87.83L335.41 88.17L335.43 88.51L335.45 88.86L335.45 89.22L335.45 100.34L335.45 100.49L335.46 100.64L335.46 100.79L335.47 100.93L335.48 101.07L335.49 101.2L335.5 101.33L335.52 101.46L335.54 101.58L335.56 101.69L335.59 101.81L335.61 101.92L335.64 102.02L335.67 102.12L335.71 102.22L335.75 102.31L335.79 102.4L335.83 102.49L335.87 102.57L335.92 102.65L335.97 102.72L336.03 102.79L336.09 102.86L336.15 102.92L336.21 102.98L336.22 102.99L336.24 103L336.27 103.02L336.29 103.04L336.33 103.05L336.36 103.07L336.4 103.09L336.44 103.11L336.49 103.14L336.54 103.16L336.59 103.18L336.65 103.21L336.71 103.23L336.78 103.26L336.85 103.29L336.92 103.32L337 103.35L337.08 103.38L337.16 103.41L337.25 103.44L337.34 103.48L337.43 103.51L337.52 103.55L337.62 103.59L337.73 103.63L337.79 103.65L337.85 103.68L337.91 103.71L337.96 103.75L338.01 103.78L338.06 103.82L338.11 103.86L338.15 103.91L338.19 103.95L338.23 104L338.26 104.06L338.29 104.11L338.32 104.17L338.35 104.23L338.37 104.3L338.39 104.36L338.41 104.44L338.43 104.51L338.44 104.59L338.46 104.67L338.47 104.76L338.47 104.85L338.48 104.94L338.48 105.04L338.48 105.14L338.48 105.24L338.48 105.34L338.46 105.44L338.45 105.52L338.43 105.61L338.41 105.69L338.38 105.77L338.35 105.84L338.31 105.91L338.27 105.97L338.22 106.03L338.17 106.09L338.12 106.14L338.06 106.19L337.99 106.23L337.92 106.27L337.85 106.31L337.77 106.34L337.69 106.37L337.6 106.39L337.5 106.41L337.4 106.42L337.3 106.43L337.19 106.44L337.08 106.44L337.05 106.44L337.02 106.44L336.99 106.44L336.95 106.43L336.92 106.43L336.88 106.42L336.84 106.42L336.8 106.41L336.75 106.4L336.7 106.39L336.65 106.38L336.6 106.37L336.55 106.35L336.49 106.34L336.43 106.32L336.37 106.31L336.3 106.29L336.23 106.27L336.16 106.25L336.08 106.23L336.01 106.21L335.93 106.19L335.84 106.17L335.76 106.14L335.67 106.12L335.53 106.07L335.39 106.02L335.26 105.97L335.13 105.93L335.01 105.88L334.89 105.84L334.77 105.8L334.66 105.76L334.55 105.73L334.45 105.69L334.36 105.66L334.26 105.63L334.18 105.6L334.09 105.57L334.01 105.55L333.94 105.52L333.87 105.5L333.81 105.48L333.75 105.46L333.7 105.44L333.65 105.42L333.6 105.4L333.56 105.39L333.53 105.37L333.5 105.36L333.43 105.35L333.37 105.34L333.3 105.32L333.24 105.3L333.18 105.27L333.13 105.23L333.07 105.19L333.02 105.15L332.97 105.1L332.92 105.04L332.87 104.99L332.83 104.92L332.79 104.86L332.74 104.78L332.7 104.71L332.67 104.63L332.63 104.55L332.59 104.46L332.56 104.37L332.53 104.28L332.5 104.18L332.47 104.08L332.44 103.98L332.41 103.88L332.38 103.77L332.16 103.92L331.94 104.07L331.73 104.21L331.52 104.35L331.32 104.49L331.13 104.61L330.94 104.73L330.76 104.85L330.59 104.96L330.42 105.07L330.26 105.17L330.1 105.27L329.95 105.36L329.81 105.44L329.68 105.52L329.55 105.6L329.42 105.67L329.31 105.74L329.19 105.8L329.09 105.85L328.99 105.9L328.9 105.94L328.82 105.98L328.74 106.02L328.66 106.04L328.53 106.1L328.4 106.14L328.26 106.19L328.12 106.24L327.97 106.28L327.82 106.32L327.67 106.36L327.52 106.39L327.36 106.43L327.2 106.46L327.03 106.49L326.86 106.52L326.69 106.54L326.52 106.57L326.34 106.59L326.16 106.61L325.98 106.63L325.79 106.64L325.6 106.66L325.41 106.67L325.21 106.68L325.02 106.69L324.81 106.69L324.61 106.69L324.4 106.69L324.09 106.69L323.78 106.68L323.48 106.67L323.18 106.65L322.88 106.63L322.59 106.6L322.3 106.57L322.02 106.53L321.74 106.48L321.47 106.43L321.2 106.38L320.94 106.32L320.68 106.26L320.43 106.19L320.18 106.11L319.94 106.03L319.7 105.94L319.47 105.85L319.24 105.76L319.02 105.65L318.8 105.55L318.59 105.44L318.38 105.32L318.18 105.2L317.98 105.07L317.75 104.91L317.53 104.75L317.32 104.57L317.11 104.39L316.92 104.21L316.74 104.02L316.56 103.82L316.4 103.62L316.24 103.41L316.09 103.19L315.96 102.97L315.83 102.74L315.71 102.51L315.6 102.27L315.5 102.03L315.41 101.78L315.33 101.52L315.25 101.26L315.19 101L315.14 100.73L315.1 100.45L315.06 100.17L315.04 99.88L315.02 99.59L315.02 99.29L315.02 98.99L315.04 98.7L315.06 98.4L315.1 98.12L315.15 97.84L315.2 97.56L315.27 97.29L315.34 97.02L315.43 96.76L315.53 96.51L315.63 96.26L315.75 96.01L315.87 95.77L316.01 95.54L316.15 95.31L316.3 95.09L316.46 94.88L316.63 94.67L316.82 94.47L317 94.28L317.2 94.09L317.41 93.91L317.63 93.74L317.85 93.57L318.09 93.41L318.3 93.26L318.51 93.11L318.73 92.97L318.96 92.84L319.19 92.71L319.43 92.59L319.67 92.47L319.92 92.36L320.17 92.26L320.42 92.16L320.68 92.07L320.95 91.99L321.22 91.91L321.49 91.84L321.77 91.77L322.05 91.71L322.33 91.66L322.62 91.61L322.91 91.57L323.21 91.54L323.5 91.51L323.81 91.49L324.11 91.47L324.42 91.46L324.73 91.46L324.99 91.46L325.25 91.47L325.52 91.48L325.79 91.5L326.06 91.52L326.33 91.55L326.61 91.58L326.89 91.62L327.18 91.67L327.46 91.71L327.75 91.77L328.04 91.82L328.34 91.88L328.64 91.95L328.94 92.02L329.25 92.1L329.56 92.18L329.87 92.26L330.18 92.35L330.51 92.44L330.83 92.54L331.16 92.64L331.49 92.75L331.83 92.86L332.17 92.98L332.17 89.15L332.16 88.93L332.15 88.72L332.13 88.51L332.1 88.3L332.06 88.11L332.02 87.91L331.96 87.72L331.9 87.54L331.83 87.36L331.75 87.19L331.66 87.02L331.56 86.86L331.46 86.7L331.34 86.54L331.22 86.4L331.09 86.25L330.95 86.12L330.81 85.99L330.65 85.86L330.48 85.74L330.31 85.62L330.13 85.51L329.94 85.41L329.74 85.31L329.53 85.21L329.39 85.15L329.24 85.09L329.09 85.03L328.93 84.98L328.77 84.93L328.61 84.88L328.45 84.83L328.28 84.79L328.11 84.75L327.94 84.71L327.76 84.68L327.59 84.65L327.4 84.62L327.22 84.59L327.04 84.57L326.85 84.55L326.66 84.53L326.46 84.51L326.27 84.5L326.07 84.48L325.87 84.47L325.67 84.47L325.47 84.46L325.26 84.46L325.05 84.46L324.57 84.46L324.1 84.48L323.64 84.5L323.21 84.54L322.8 84.59L322.4 84.65L322.03 84.71L321.67 84.79L321.33 84.88L321.01 84.99L320.71 85.1L320.42 85.22L320.15 85.36L319.9 85.5L319.67 85.66L319.46 85.82L319.26 86L319.08 86.19L318.92 86.4L318.77 86.61L318.65 86.83L318.53 87.07L318.44 87.32L318.36 87.58L318.3 87.85L318.28 87.98L318.25 88.1L318.23 88.21L318.21 88.32L318.19 88.42L318.17 88.52L318.15 88.61L318.13 88.7L318.11 88.78L318.1 88.86L318.08 88.93L318.07 89L318.05 89.06L318.04 89.12L318.03 89.17L318.02 89.22L318.01 89.26L318 89.3L318 89.34L317.99 89.37L317.99 89.4L317.98 89.42L317.98 89.44L317.98 89.46L317.98 89.47L317.95 89.54L317.92 89.6L317.89 89.66L317.86 89.71L317.82 89.76L317.78 89.81L317.75 89.86L317.7 89.9L317.66 89.94L317.61 89.98L317.57 90.01L317.52 90.04L317.46 90.07L317.41 90.1L317.35 90.12L317.3 90.14L317.24 90.16L317.17 90.18L317.11 90.19L317.04 90.21L316.97 90.22L316.9 90.22L316.83 90.23L316.76 90.23L316.68 90.23L316.55 90.23L316.43 90.22L316.31 90.2L316.19 90.18L316.08 90.16L315.98 90.12L315.88 90.08L315.78 90.04L315.69 89.98L315.6 89.93L315.52 89.86L315.44 89.8L315.37 89.72L315.3 89.64L315.24 89.55L315.19 89.46L315.14 89.37L315.09 89.26L315.06 89.15L315.02 89.04L314.99 88.92L314.97 88.8L314.96 88.67L314.95 88.53L314.95 88.39L314.95 88.2L314.96 88L314.97 87.81L315 87.62L315.02 87.43L315.06 87.24L315.1 87.05L315.15 86.86L315.2 86.67L315.26 86.48L315.32 86.3L315.39 86.11L315.47 85.93L315.56 85.74L315.65 85.56L315.74 85.38L315.85 85.2L315.96 85.02L316.07 84.84L316.19 84.67L316.32 84.49L316.46 84.32L316.6 84.15L316.74 83.98L316.9 83.81L317.08 83.6L317.29 83.41L317.5 83.22L317.73 83.04L317.98 82.87L318.23 82.7L318.5 82.55L318.78 82.4L319.08 82.26L319.38 82.13L319.7 82.01L320.04 81.89L320.38 81.79L320.74 81.69L321.11 81.6L321.49 81.52L321.88 81.45L322.28 81.38L322.7 81.33L323.12 81.28L323.56 81.24L324.01 81.21L324.47 81.19L324.94 81.18L325.42 81.17L325.8 81.17L326.18 81.18ZM321.96 95.12L320.66 95.58L319.65 96.24L318.92 97.08L318.48 98.11L318.34 99.33L318.38 99.97L318.5 100.57L318.71 101.14L319 101.66L319.37 102.12L319.84 102.51L320.4 102.83L320.88 103.09L321.41 103.31L321.98 103.49L322.59 103.63L323.24 103.73L323.93 103.79L324.66 103.81L325.3 103.79L325.92 103.75L326.52 103.67L327.11 103.55L327.68 103.4L328.25 103.19L328.81 102.94L329.19 102.72L329.61 102.44L330.08 102.13L330.58 101.78L331.12 101.39L331.68 100.97L332.27 100.52L332.27 95.94L331.25 95.63L330.23 95.37L329.22 95.15L328.23 94.98L327.26 94.85L326.32 94.77L325.42 94.75L323.55 94.84L321.96 95.12Z" id="h1SOYvhOy"></path><path d="M346.53 82.07C347.18 81.64 348.05 81.42 349.28 81.42C351.01 81.42 352.56 82.29 353.86 84.17C354.73 83.08 355.49 82.43 356.25 82.11C357 81.68 358.09 81.46 359.31 81.46C363.03 81.46 364.98 83.3 364.98 86.91C364.98 88.68 364.98 102.83 364.98 104.6C364.98 106.12 364.44 106.77 363.36 106.77C362.27 106.77 361.84 106.12 361.84 104.6C361.84 102.94 361.84 89.69 361.84 88.03C361.84 85.76 360.87 84.53 358.99 84.53C357.58 84.53 356.14 85.39 354.95 87.06C354.95 88.82 354.95 102.98 354.95 104.75C354.95 106.26 354.4 106.91 353.43 106.91C352.45 106.91 351.91 106.26 351.91 104.75C351.91 103.11 351.91 90.03 351.91 88.39C351.91 85.86 350.83 84.67 348.84 84.67C347.55 84.67 346.32 85.54 345.02 87.2C345.02 88.96 345.02 103.02 345.02 104.78C345.02 106.3 344.48 106.95 343.39 106.95C342.31 106.95 341.88 106.3 341.88 104.78C341.88 102.61 341.88 85.25 341.88 83.08C341.88 82 342.31 81.57 343.18 81.57C343.61 81.57 344.04 81.89 344.26 82.54C344.48 82.83 344.58 83.37 344.58 84.02C344.58 84.02 344.58 84.02 344.58 84.02L344.58 84.02C345.6 82.94 346.25 82.29 346.53 82.07Z" id="a3gD4ywhyD"></path><path d="M371.35 81.29L371.4 81.3L371.46 81.31L371.52 81.33L371.58 81.35L371.64 81.38L371.69 81.41L371.75 81.44L371.81 81.48L371.86 81.52L371.92 81.57L371.97 81.62L372.03 81.67L372.08 81.73L372.13 81.79L372.18 81.86L372.23 81.93L372.28 82.01L372.33 82.08L372.37 82.17L372.42 82.25L372.43 82.33L372.45 82.41L372.47 82.49L372.5 82.58L372.52 82.66L372.55 82.74L372.57 82.82L372.6 82.9L372.63 82.99L372.66 83.07L372.69 83.15L372.72 83.23L372.75 83.32L372.78 83.4L372.81 83.48L372.83 83.56L372.86 83.64L372.88 83.72L372.9 83.8L372.93 83.87L372.94 83.95L372.96 84.02L373.44 83.79L373.91 83.57L374.38 83.35L374.83 83.15L375.28 82.96L375.71 82.78L376.14 82.61L376.56 82.45L376.97 82.31L377.37 82.17L377.76 82.05L378.14 81.93L378.52 81.83L378.88 81.74L379.24 81.65L379.59 81.58L379.92 81.52L380.25 81.47L380.57 81.44L380.88 81.41L381.19 81.39L381.48 81.39L382.37 81.41L383.21 81.46L384.01 81.55L384.77 81.67L385.49 81.83L386.17 82.02L386.8 82.25L387.4 82.51L387.95 82.8L388.46 83.13L388.93 83.5L389.36 83.89L389.75 84.32L390.1 84.79L390.41 85.29L390.67 85.82L390.9 86.38L391.08 86.98L391.22 87.61L391.33 88.27L391.39 88.96L391.41 89.69L391.41 98.75L391.4 99.11L391.38 99.45L391.35 99.79L391.31 100.12L391.26 100.45L391.19 100.76L391.11 101.07L391.02 101.37L390.92 101.66L390.81 101.94L390.69 102.22L390.55 102.49L390.4 102.76L390.24 103.02L390.07 103.27L389.89 103.51L389.7 103.75L389.49 103.98L389.27 104.21L389.05 104.43L388.81 104.64L388.56 104.85L388.33 105.03L388.1 105.19L387.85 105.35L387.6 105.5L387.34 105.64L387.08 105.77L386.8 105.9L386.52 106.01L386.23 106.12L385.93 106.22L385.63 106.32L385.31 106.4L384.99 106.48L384.67 106.55L384.33 106.61L383.99 106.66L383.64 106.7L383.29 106.74L382.93 106.77L382.56 106.79L382.19 106.8L381.8 106.8L381.35 106.8L380.89 106.78L380.44 106.75L380 106.72L379.56 106.67L379.13 106.61L378.71 106.54L378.29 106.45L377.87 106.36L377.46 106.25L377.06 106.14L376.66 106.01L376.27 105.87L375.88 105.71L375.5 105.55L375.12 105.37L374.75 105.18L374.38 104.98L374.02 104.77L373.66 104.55L373.31 104.31L372.96 104.06L372.96 114.31L372.96 114.51L372.95 114.71L372.93 114.9L372.91 115.07L372.88 115.24L372.84 115.4L372.8 115.55L372.75 115.7L372.7 115.83L372.63 115.96L372.57 116.07L372.49 116.18L372.42 116.27L372.33 116.36L372.24 116.44L372.14 116.51L372.04 116.56L371.93 116.61L371.82 116.65L371.7 116.67L371.57 116.69L371.44 116.69L371.31 116.69L371.19 116.68L371.07 116.65L370.96 116.62L370.85 116.58L370.75 116.52L370.65 116.46L370.56 116.39L370.47 116.31L370.39 116.21L370.32 116.11L370.25 116L370.19 115.88L370.14 115.75L370.09 115.6L370.05 115.45L370.01 115.29L369.98 115.11L369.96 114.93L369.94 114.73L369.93 114.53L369.93 114.31L369.93 83.66L369.93 83.46L369.94 83.26L369.95 83.08L369.97 82.9L369.99 82.73L370.02 82.57L370.06 82.42L370.1 82.28L370.15 82.14L370.2 82.02L370.25 81.9L370.31 81.8L370.38 81.7L370.45 81.61L370.53 81.54L370.62 81.47L370.7 81.41L370.8 81.36L370.9 81.33L371 81.3L371.11 81.28L371.23 81.28L371.29 81.28L371.35 81.29ZM379.97 84.62L379.52 84.65L379.08 84.69L378.66 84.75L378.26 84.81L377.87 84.89L377.5 84.99L377.14 85.1L376.79 85.22L376.46 85.36L376.17 85.49L375.87 85.65L375.57 85.83L375.26 86.04L374.95 86.28L374.63 86.54L374.3 86.83L373.96 87.14L373.61 87.47L373.24 87.83L372.85 88.21L372.85 100.67L372.96 100.67L372.96 100.63L373.86 101.16L374.73 101.64L375.57 102.08L376.38 102.46L377.16 102.79L377.92 103.06L378.65 103.29L379.34 103.47L380.01 103.6L380.65 103.67L381.26 103.7L381.79 103.69L382.3 103.67L382.79 103.62L383.27 103.56L383.73 103.49L384.17 103.39L384.59 103.28L384.99 103.14L385.37 102.99L385.73 102.81L386.06 102.62L386.46 102.37L386.81 102.1L387.12 101.81L387.39 101.5L387.62 101.17L387.81 100.82L387.96 100.45L388.08 100.07L388.17 99.66L388.21 99.23L388.23 98.79L388.23 89.73L388.21 89.21L388.16 88.72L388.06 88.27L387.93 87.84L387.75 87.44L387.54 87.06L387.28 86.71L386.99 86.39L386.65 86.1L386.27 85.82L385.85 85.58L385.51 85.41L385.15 85.25L384.77 85.12L384.37 85L383.94 84.89L383.49 84.8L383.02 84.73L382.53 84.67L382.02 84.63L381.49 84.61L380.94 84.6L380.45 84.61L379.97 84.62Z" id="a27R79DEEv"></path><path d="M409.39 73.55C411.12 71.6 412.56 70.59 413.54 70.59C413.86 70.59 414.19 70.7 414.51 70.92C414.73 71.14 414.95 71.46 414.95 71.78C414.95 72.33 414.3 73.08 413.1 74.31C408.09 79.11 405.56 85 405.56 92.11C405.56 99.98 408.19 106.3 413.32 111.21C414.4 112.18 414.84 112.94 414.84 113.59C414.84 113.91 414.62 114.24 414.4 114.56C414.19 114.78 413.75 115 413.43 115C412.24 115 410.58 113.59 408.41 110.85C404.19 105.65 402.29 99.92 402.2 92.11C402.12 84.3 404.58 79.01 409.39 73.55Z" id="a5qk00muka"></path><path d="M420.16 113.64C419.08 113.64 418.27 112.83 418.27 111.74C418.27 110.66 419.08 109.84 420.16 109.84C423.19 109.84 447.4 109.84 450.43 109.84C451.51 109.84 452.32 110.66 452.32 111.74C452.05 112.83 451.51 113.64 450.43 113.64C450.43 113.64 450.43 113.64 450.43 113.64C432.27 113.64 422.18 113.64 420.16 113.64Z" id="d16BVGzFkA"></path><path d="M431.37 79.22C431.37 84.67 423.93 90.67 423.93 96.33C423.93 102.43 428.63 106.37 433.1 107.56C433.75 107.67 433.97 107.02 433.21 106.8C431.37 106.37 429.39 103.95 429.39 100.27C429.39 96.77 432.78 95.47 434.08 93.84C435.49 92.11 435.16 89.91 434.3 89.26C433.43 88.61 434.08 87.74 435.49 88.82C436.9 89.8 438.12 91.78 437.65 93.52C437.11 95.79 437.87 97.13 439.06 97.34C440.25 97.56 441.59 96.91 441.44 95.83C441.3 94.75 440.69 93.55 441.01 93.55C441.88 93.55 443.65 95.61 443.65 99.01C443.65 102.4 440.9 104.67 440.04 105.54C439.49 106.08 440.14 106.73 440.9 106.41C441.23 106.3 441.99 105.86 442.42 105.54C444.58 104.02 447.98 100.85 447.98 95.07C447.98 88.97 445.7 86.23 443.29 83.95C440.9 81.68 440.32 82.22 441.01 83.41C442.96 86.8 441.77 87.99 440.36 87.99C438.63 87.99 438.63 84.17 437.83 81.24C436.43 74.71 430.4 73.59 429.31 73.48C428.52 73.12 427.51 73.77 428.84 74.31C428.84 74.31 428.84 74.31 428.84 74.31C430.53 75.47 431.37 77.1 431.37 79.22Z" id="g2bG6QmaE5"></path><path d="M461.16 112.18C459.42 114.13 457.98 115.14 457 115.14C456.68 115.14 456.35 115.03 456.03 114.82C455.81 114.6 455.6 114.17 455.6 113.84C455.6 113.3 456.25 112.54 457.44 111.46C462.45 106.66 464.98 100.77 464.98 93.66C464.98 85.79 462.35 79.47 457.22 74.56C456.14 73.59 455.7 72.83 455.7 72.18C455.7 71.86 455.92 71.53 456.14 71.21C456.35 70.99 456.79 70.77 457.11 70.77C458.19 70.77 459.96 72.18 462.13 74.93C466.14 80.12 468.5 86.17 468.34 93.73C468.18 101.3 465.96 106.73 461.16 112.18Z" id="feb7bzrRQ"></path></defs><g><g><use xlink:href="#c2rfzKhFXe" opacity="1" fill="#ffffff" fill-opacity="1"></use><g><use xlink:href="#c2rfzKhFXe" opacity="1" fill-opacity="0" stroke="#000000" stroke-width="1" stroke-opacity="0"></use></g></g><g><use xlink:href="#a1lnzgAUMf" opacity="1" fill="#ffffff" fill-opacity="1"></use><g><use xlink:href="#a1lnzgAUMf" opacity="1" fill-opacity="0" stroke="#000000" stroke-width="1" stroke-opacity="0"></use></g></g><g><use xlink:href="#a2uxcyStD" opacity="1" fill="#ffffff" fill-opacity="1"></use><g><use xlink:href="#a2uxcyStD" opacity="1" fill-opacity="0" stroke="#000000" stroke-width="1" stroke-opacity="0"></use></g></g><g><use xlink:href="#gH2eXpiLa" opacity="1" fill="#ffffff" fill-opacity="1"></use><g><use xlink:href="#gH2eXpiLa" opacity="1" fill-opacity="0" stroke="#000000" stroke-width="1" stroke-opacity="0"></use></g></g><g><use xlink:href="#fQTPOp1HR" opacity="1" fill="#ffffff" fill-opacity="1"></use><g><use xlink:href="#fQTPOp1HR" opacity="1" fill-opacity="0" stroke="#000000" stroke-width="1" stroke-opacity="0"></use></g></g><g><use xlink:href="#a251t9G9jq" opacity="1" fill="#ffffff" fill-opacity="1"></use><g><use xlink:href="#a251t9G9jq" opacity="1" fill-opacity="0" stroke="#000000" stroke-width="1" stroke-opacity="0"></use></g></g><g><use xlink:href="#b2DCHwL0mN" opacity="1" fill="#ffffff" fill-opacity="1"></use><g><use xlink:href="#b2DCHwL0mN" opacity="1" fill-opacity="0" stroke="#000000" stroke-width="1" stroke-opacity="0"></use></g></g><g><use xlink:href="#b4kVpGgIUB" opacity="1" fill="#ffffff" fill-opacity="1"></use><g><use xlink:href="#b4kVpGgIUB" opacity="1" fill-opacity="0" stroke="#000000" stroke-width="1" stroke-opacity="0"></use></g></g><g><use xlink:href="#a1fxnYhBIe" opacity="1" fill="#ffffff" fill-opacity="1"></use><g><use xlink:href="#a1fxnYhBIe" opacity="1" fill-opacity="0" stroke="#000000" stroke-width="1" stroke-opacity="0"></use></g></g><g><use xlink:href="#h1SOYvhOy" opacity="1" fill="#ffffff" fill-opacity="1"></use><g><use xlink:href="#h1SOYvhOy" opacity="1" fill-opacity="0" stroke="#000000" stroke-width="1" stroke-opacity="0"></use></g></g><g><use xlink:href="#a3gD4ywhyD" opacity="1" fill="#ffffff" fill-opacity="1"></use><g><use xlink:href="#a3gD4ywhyD" opacity="1" fill-opacity="0" stroke="#000000" stroke-width="1" stroke-opacity="0"></use></g></g><g><use xlink:href="#a27R79DEEv" opacity="1" fill="#ffffff" fill-opacity="1"></use><g><use xlink:href="#a27R79DEEv" opacity="1" fill-opacity="0" stroke="#000000" stroke-width="1" stroke-opacity="0"></use></g></g><g><use xlink:href="#a5qk00muka" opacity="1" fill="#ffffff" fill-opacity="1"></use><g><use xlink:href="#a5qk00muka" opacity="1" fill-opacity="0" stroke="#000000" stroke-width="1" stroke-opacity="0"></use></g></g><g><use xlink:href="#d16BVGzFkA" opacity="1" fill="#ffffff" fill-opacity="1"></use><g><use xlink:href="#d16BVGzFkA" opacity="1" fill-opacity="0" stroke="#000000" stroke-width="1" stroke-opacity="0"></use></g></g><g><use xlink:href="#g2bG6QmaE5" opacity="1" fill="#ffffff" fill-opacity="1"></use><g><use xlink:href="#g2bG6QmaE5" opacity="1" fill-opacity="0" stroke="#000000" stroke-width="1" stroke-opacity="0"></use></g></g><g><use xlink:href="#feb7bzrRQ" opacity="1" fill="#ffffff" fill-opacity="1"></use><g><use xlink:href="#feb7bzrRQ" opacity="1" fill-opacity="0" stroke="#000000" stroke-width="1" stroke-opacity="0"></use></g></g></g></svg>