<svg xmlns="http://www.w3.org/2000/svg"
  width="20px" height="20px"
  viewBox="0 0 800 800">
  <path id="Stomach"
    fill="black" stroke="black" strokeWidth="1"
    d="M 370.00,100.00
       C 
         360.25,163.91 370.21,162.16 376.00,157.61
         382.11,152.81 384.39,146.35 388.44,140.00
         392.44,133.70 397.76,127.30 403.00,122.00
         424.49,100.26 449.34,86.68 478.00,76.69
         495.14,70.72 526.99,64.03 545.00,64.00
         545.00,64.00 577.00,64.00 577.00,64.00
         577.00,64.00 601.00,66.75 601.00,66.75
         640.60,73.24 677.04,89.11 707.00,116.17
         743.54,149.17 767.91,202.39 778.42,250.00
         781.61,264.44 785.83,287.47 786.00,302.00
         786.00,302.00 786.68,326.00 786.68,326.00
         786.68,326.00 786.00,336.00 786.00,336.00
         785.95,367.30 776.63,409.68 765.58,439.00
         719.03,562.40 613.96,643.39 487.00,671.42
         464.92,676.30 442.54,679.51 420.00,681.09
         420.00,681.09 410.00,682.00 410.00,682.00
         410.00,682.00 393.00,683.00 393.00,683.00
         393.00,683.00 372.00,683.00 372.00,683.00
         372.00,683.00 360.00,681.96 360.00,681.96
         360.00,681.96 350.00,681.96 350.00,681.96
         327.48,679.69 304.41,675.77 283.00,668.31
         266.19,662.45 249.90,654.70 234.00,646.75
         219.74,639.62 202.24,631.19 186.00,631.00
         186.00,631.00 182.00,631.00 182.00,631.00
         174.66,631.09 163.68,633.32 157.00,636.31
         135.97,530.26 164.05,530.45 201.00,516.95
         257.93,496.14 312.63,456.16 345.69,405.00
         360.14,382.64 372.96,354.10 373.00,327.00
         Z
       M 176.62,776.92" />
  <path id="HALF"
    fill="#d37f26" stroke="d37f26" strokeWidth="1"
    d="M 220.00,575.00
       C 220.00,575.00 242.00,565.72 242.00,565.72
         255.02,560.10 267.70,553.63 280.00,546.57
         298.43,536.01 321.30,520.02 337.00,505.83
         337.00,505.83 355.00,488.00 355.00,488.00
         368.21,474.79 373.22,470.12 384.77,455.00
         396.76,439.29 407.45,420.96 415.69,403.00
         417.07,400.01 422.07,386.21 423.70,384.99
         425.37,383.74 428.96,384.00 431.00,384.00
         431.00,384.00 719.00,384.00 719.00,384.00
         715.37,402.05 708.29,420.20 700.86,437.00
         691.29,458.66 678.17,479.51 663.40,498.00
         656.33,506.85 649.00,515.97 640.99,523.99
         633.28,531.69 624.51,538.79 616.00,545.60
         566.40,585.28 509.65,608.24 447.00,617.27
         447.00,617.27 402.00,622.00 402.00,622.00
         402.00,622.00 398.00,622.00 398.00,622.00
         398.00,622.00 384.00,623.00 384.00,623.00
         384.00,623.00 380.00,623.00 380.00,623.00
         380.00,623.00 368.00,621.96 368.00,621.96
         368.00,621.96 358.00,621.96 358.00,621.96
         339.73,620.09 321.46,617.31 304.00,611.49
         284.65,605.03 266.32,595.13 248.00,586.26
         248.00,586.26 220.00,575.00 220.00,575.00 Z" />
</svg>
