<svg xmlns="http://www.w3.org/2000/svg"
  width="20px" height="20px"
  viewBox="0 0 800 800">
  <path id="Stomach"
    fill="black" stroke="black" strokeWidth="1"
    d="M 370.00,100.00
       C 
         360.25,163.91 370.21,162.16 376.00,157.61
         382.11,152.81 384.39,146.35 388.44,140.00
         392.44,133.70 397.76,127.30 403.00,122.00
         424.49,100.26 449.34,86.68 478.00,76.69
         495.14,70.72 526.99,64.03 545.00,64.00
         545.00,64.00 577.00,64.00 577.00,64.00
         577.00,64.00 601.00,66.75 601.00,66.75
         640.60,73.24 677.04,89.11 707.00,116.17
         743.54,149.17 767.91,202.39 778.42,250.00
         781.61,264.44 785.83,287.47 786.00,302.00
         786.00,302.00 786.68,326.00 786.68,326.00
         786.68,326.00 786.00,336.00 786.00,336.00
         785.95,367.30 776.63,409.68 765.58,439.00
         719.03,562.40 613.96,643.39 487.00,671.42
         464.92,676.30 442.54,679.51 420.00,681.09
         420.00,681.09 410.00,682.00 410.00,682.00
         410.00,682.00 393.00,683.00 393.00,683.00
         393.00,683.00 372.00,683.00 372.00,683.00
         372.00,683.00 360.00,681.96 360.00,681.96
         360.00,681.96 350.00,681.96 350.00,681.96
         327.48,679.69 304.41,675.77 283.00,668.31
         266.19,662.45 249.90,654.70 234.00,646.75
         219.74,639.62 202.24,631.19 186.00,631.00
         186.00,631.00 182.00,631.00 182.00,631.00
         174.66,631.09 163.68,633.32 157.00,636.31
         135.97,530.26 164.05,530.45 201.00,516.95
         257.93,496.14 312.63,456.16 345.69,405.00
         360.14,382.64 372.96,354.10 373.00,327.00
         Z
       M 176.62,776.92" />
  <path id="HIGH"
    fill="white" stroke="white" strokeWidth="1"
    d="M 421.00,252.00
       C 421.00,252.00 717.00,252.00 717.00,252.00
         724.09,287.27 726.06,295.34 726.00,332.00
         726.00,332.00 725.09,344.00 725.09,344.00
         723.08,371.50 716.64,398.41 706.40,424.00
         692.01,459.97 668.40,496.57 640.99,523.99
         633.28,531.69 624.51,538.79 616.00,545.60
         562.27,588.58 500.10,611.88 432.00,619.16
         432.00,619.16 398.00,622.00 398.00,622.00
         398.00,622.00 379.00,623.00 379.00,623.00
         379.00,623.00 368.00,622.00 368.00,622.00
         368.00,622.00 359.00,622.00 359.00,622.00
         348.46,621.19 337.37,619.63 327.00,617.55
         297.02,611.56 275.03,599.34 248.00,586.26
         248.00,586.26 220.00,575.00 220.00,575.00
         220.00,575.00 251.00,561.74 251.00,561.74
         275.99,549.65 296.75,537.34 319.00,520.63
         333.42,509.79 342.42,500.58 355.00,488.00
         355.00,488.00 370.83,472.00 370.83,472.00
         392.04,448.55 412.64,415.08 422.67,385.00
         427.72,369.83 432.97,351.04 433.00,335.00
         433.02,320.26 433.86,302.28 431.56,288.00
         430.36,280.54 427.46,270.20 425.00,263.00
         425.00,263.00 421.00,252.00 421.00,252.00 Z" />
</svg>
