<svg xmlns="http://www.w3.org/2000/svg"
  width="20px" height="20px"
  viewBox="0 0 800 800">
  <path id="Stomach"
    fill="black" stroke="black" strokeWidth="1"
    d="M 370.00,100.00
       C 
         360.25,163.91 370.21,162.16 376.00,157.61
         382.11,152.81 384.39,146.35 388.44,140.00
         392.44,133.70 397.76,127.30 403.00,122.00
         424.49,100.26 449.34,86.68 478.00,76.69
         495.14,70.72 526.99,64.03 545.00,64.00
         545.00,64.00 577.00,64.00 577.00,64.00
         577.00,64.00 601.00,66.75 601.00,66.75
         640.60,73.24 677.04,89.11 707.00,116.17
         743.54,149.17 767.91,202.39 778.42,250.00
         781.61,264.44 785.83,287.47 786.00,302.00
         786.00,302.00 786.68,326.00 786.68,326.00
         786.68,326.00 786.00,336.00 786.00,336.00
         785.95,367.30 776.63,409.68 765.58,439.00
         719.03,562.40 613.96,643.39 487.00,671.42
         464.92,676.30 442.54,679.51 420.00,681.09
         420.00,681.09 410.00,682.00 410.00,682.00
         410.00,682.00 393.00,683.00 393.00,683.00
         393.00,683.00 372.00,683.00 372.00,683.00
         372.00,683.00 360.00,681.96 360.00,681.96
         360.00,681.96 350.00,681.96 350.00,681.96
         327.48,679.69 304.41,675.77 283.00,668.31
         266.19,662.45 249.90,654.70 234.00,646.75
         219.74,639.62 202.24,631.19 186.00,631.00
         186.00,631.00 182.00,631.00 182.00,631.00
         174.66,631.09 163.68,633.32 157.00,636.31
         135.97,530.26 164.05,530.45 201.00,516.95
         257.93,496.14 312.63,456.16 345.69,405.00
         360.14,382.64 372.96,354.10 373.00,327.00
         Z
       M 176.62,776.92" />
  <path id="FULL"
    fill="white" stroke="white" strokeWidth="1"
    d="M 420.00,218.00
       C 407.25,210.33 418.07,203.52 429.48,189.00
         436.87,179.61 438.70,170.22 450.01,160.44
         473.20,140.39 503.01,130.04 533.00,125.87
         539.60,124.95 546.33,124.01 553.00,124.00
         553.00,124.00 569.00,124.00 569.00,124.00
         579.35,124.12 600.96,127.73 611.00,130.72
         632.68,137.18 654.83,149.00 670.91,165.09
         683.29,177.47 693.98,195.13 701.31,211.00
         713.91,238.32 720.58,261.13 724.15,291.00
         724.15,291.00 726.00,312.00 726.00,312.00
         726.00,312.00 726.00,332.00 726.00,332.00
         726.00,332.00 725.09,344.00 725.09,344.00
         723.08,371.50 716.64,398.41 706.40,424.00
         692.01,459.97 668.40,496.57 640.99,523.99
         633.28,531.69 624.51,538.79 616.00,545.60
         562.27,588.58 500.10,611.88 432.00,619.16
         432.00,619.16 398.00,622.00 398.00,622.00
         398.00,622.00 379.00,623.00 379.00,623.00
         379.00,623.00 368.00,622.00 368.00,622.00
         368.00,622.00 359.00,622.00 359.00,622.00
         348.46,621.19 337.37,619.63 327.00,617.55
         297.02,611.56 275.03,599.34 248.00,586.26
         248.00,586.26 220.00,575.00 220.00,575.00
         220.00,575.00 251.00,561.74 251.00,561.74
         275.70,549.79 294.86,538.44 317.00,522.12
         331.99,511.06 341.00,502.00 354.00,489.00
         354.00,489.00 370.83,472.00 370.83,472.00
         398.14,441.81 420.77,400.91 429.58,361.00
         433.97,341.10 433.23,322.24 433.00,302.00 Z" />
</svg>
